<svg id="Capa_2" data-name="Capa 2" xmlns="http://www.w3.org/2000/svg" viewBox="0 0 751.53 723.71"><defs><style>.cls-1,.cls-10,.cls-11,.cls-2,.cls-7,.cls-9{fill:#fff;}.cls-1{stroke:#000;}.cls-1,.cls-2,.cls-3,.cls-4,.cls-5,.cls-6,.cls-7,.cls-8{stroke-miterlimit:10;}.cls-1,.cls-2,.cls-3,.cls-4,.cls-5,.cls-6{stroke-width:3px;}.cls-2,.cls-3,.cls-7,.cls-8{stroke:#fff;}.cls-3,.cls-8{fill:none;}.cls-4{fill:aqua;stroke:aqua;}.cls-5{fill:#ff0;stroke:#ff0;}.cls-6{fill:lime;stroke:lime;}.cls-7{font-size:48.05px;letter-spacing:-0.06em;}.cls-10,.cls-11,.cls-7{font-family:TimesNewRomanPS-BoldMT, Times New Roman;font-weight:700;}.cls-8{stroke-width:2px;}.cls-9{font-size:39px;font-family:TimesNewRomanPSMT, Times New Roman;}.cls-10{font-size:45px;}.cls-11{font-size:83px;}</style></defs><title>Diagrama_conmutatividad</title><path class="cls-1" d="M6624.5,7154.31" transform="translate(-6826.83 -6800.79)"/><path class="cls-2" d="M6996.22,6802v0Z" transform="translate(-6826.83 -6800.79)"/><path class="cls-3" d="M6971.22,6819.29" transform="translate(-6826.83 -6800.79)"/><line class="cls-3" x1="155.63" y1="11.65" x2="169.39" y2="1.19"/><line class="cls-3" x1="183.15" y1="11.65" x2="169.39" y2="1.19"/><path class="cls-2" d="M7151.83,6956.19l-325,2Z" transform="translate(-6826.83 -6800.79)"/><path class="cls-3" d="M7134.37,6931.3" transform="translate(-6826.83 -6800.79)"/><line class="cls-3" x1="314.46" y1="141.71" x2="325" y2="155.4"/><line class="cls-3" x1="314.63" y1="169.23" x2="325" y2="155.4"/><path class="cls-2" d="M7417.54,6802v0Z" transform="translate(-6826.83 -6800.79)"/><path class="cls-3" d="M7392.54,6819.29" transform="translate(-6826.83 -6800.79)"/><line class="cls-3" x1="576.95" y1="11.65" x2="590.71" y2="1.19"/><line class="cls-3" x1="604.47" y1="11.65" x2="590.71" y2="1.19"/><path class="cls-2" d="M7573.16,6956.19l-325,2Z" transform="translate(-6826.83 -6800.79)"/><path class="cls-3" d="M7555.7,6931.3" transform="translate(-6826.83 -6800.79)"/><line class="cls-3" x1="735.78" y1="141.71" x2="746.33" y2="155.4"/><line class="cls-3" x1="735.96" y1="169.23" x2="746.33" y2="155.4"/><path class="cls-2" d="M6996.22,7199.5v0Z" transform="translate(-6826.83 -6800.79)"/><path class="cls-3" d="M6971.22,7216.81" transform="translate(-6826.83 -6800.79)"/><line class="cls-3" x1="155.63" y1="409.17" x2="169.39" y2="398.71"/><line class="cls-3" x1="183.15" y1="409.17" x2="169.39" y2="398.71"/><path class="cls-2" d="M7151.83,7353.71l-325,2Z" transform="translate(-6826.83 -6800.79)"/><path class="cls-3" d="M7134.37,7328.82" transform="translate(-6826.83 -6800.79)"/><line class="cls-3" x1="314.46" y1="539.22" x2="325" y2="552.92"/><line class="cls-3" x1="314.63" y1="566.74" x2="325" y2="552.92"/><path class="cls-2" d="M7417.54,7199.5v0Z" transform="translate(-6826.83 -6800.79)"/><path class="cls-3" d="M7392.54,7216.81" transform="translate(-6826.83 -6800.79)"/><line class="cls-3" x1="576.95" y1="409.17" x2="590.71" y2="398.71"/><line class="cls-3" x1="604.47" y1="409.17" x2="590.71" y2="398.71"/><path class="cls-2" d="M7573.16,7353.71l-325,2Z" transform="translate(-6826.83 -6800.79)"/><path class="cls-3" d="M7555.7,7328.82" transform="translate(-6826.83 -6800.79)"/><line class="cls-3" x1="735.78" y1="539.22" x2="746.33" y2="552.92"/><line class="cls-3" x1="735.96" y1="566.74" x2="746.33" y2="552.92"/><circle class="cls-4" cx="250.11" cy="86.6" r="5.4"/><circle class="cls-5" cx="95.9" cy="124.65" r="5.4"/><circle class="cls-6" cx="689.72" cy="465.57" r="5.4"/><line class="cls-3" x1="348.52" y1="86.6" x2="419.47" y2="86.6"/><line class="cls-3" x1="404.94" y1="73.52" x2="419.47" y2="86.6"/><line class="cls-3" x1="419.47" y1="85.87" x2="404.94" y2="98.94"/><circle class="cls-4" cx="255.51" cy="515.65" r="5.4"/><circle class="cls-5" cx="202.41" cy="467.07" r="5.4"/><circle class="cls-6" cx="536.13" cy="30.78" r="5.4"/><line class="cls-3" x1="348.52" y1="465.2" x2="419.47" y2="465.2"/><line class="cls-3" x1="404.94" y1="452.13" x2="419.47" y2="465.2"/><line class="cls-3" x1="419.47" y1="464.47" x2="404.94" y2="477.54"/><line class="cls-3" x1="82.39" y1="313.98" x2="83.27" y2="384.93"/><line class="cls-3" x1="96.16" y1="370.24" x2="83.27" y2="384.93"/><line class="cls-3" x1="84" y1="384.92" x2="70.75" y2="370.55"/><line class="cls-3" x1="683.26" y1="306.55" x2="684.14" y2="377.5"/><line class="cls-3" x1="697.03" y1="362.8" x2="684.14" y2="377.5"/><line class="cls-3" x1="684.87" y1="377.49" x2="671.62" y2="363.11"/><text class="cls-7" transform="translate(26.08 359.24) scale(1.18 1)">L</text><text class="cls-7" transform="translate(714.67 359.24) scale(1.18 1)">L</text><text x="-6826.83" y="-6800.79"/><line class="cls-8" x1="264.93" y1="60.63" x2="285.81" y2="60.63"/><line class="cls-8" x1="281.53" y1="57.21" x2="285.81" y2="60.63"/><line class="cls-8" x1="285.81" y1="60.44" x2="281.53" y2="63.87"/><text x="-6826.83" y="-6800.79"/><text class="cls-9" transform="translate(264.93 85.71)">x</text><text class="cls-9" transform="translate(284.43 98.7) scale(0.58)">β</text><line class="cls-8" x1="106.35" y1="83.36" x2="127.22" y2="83.36"/><line class="cls-8" x1="122.95" y1="79.93" x2="127.22" y2="83.36"/><line class="cls-8" x1="127.22" y1="83.17" x2="122.95" y2="86.6"/><text x="-6826.83" y="-6800.79"/><text class="cls-9" transform="translate(106.35 104.93)">y</text><text class="cls-9" transform="translate(125.85 117.91) scale(0.58)">β</text><text x="-6826.83" y="-6800.79"/><line class="cls-8" x1="270.83" y1="480.18" x2="291.7" y2="480.18"/><line class="cls-8" x1="287.43" y1="476.75" x2="291.7" y2="480.18"/><line class="cls-8" x1="291.7" y1="479.99" x2="287.43" y2="483.42"/><text x="-6826.83" y="-6800.79"/><text class="cls-9" transform="translate(271.83 505.26)">x</text><text class="cls-9" transform="translate(291.33 518.24) scale(0.58)">γ</text><text x="-6826.83" y="-6800.79"/><text x="-6826.83" y="-6800.79"/><line class="cls-8" x1="198.55" y1="419.75" x2="219.43" y2="419.75"/><line class="cls-8" x1="215.15" y1="416.32" x2="219.43" y2="419.75"/><line class="cls-8" x1="219.43" y1="419.56" x2="215.15" y2="422.98"/><text class="cls-9" transform="translate(198.55 441.31)">y</text><text class="cls-9" transform="translate(218.05 454.3) scale(0.58)">γ</text><line class="cls-8" x1="619.69" y1="417.62" x2="640.57" y2="417.62"/><line class="cls-8" x1="636.29" y1="414.19" x2="640.57" y2="417.62"/><line class="cls-8" x1="640.57" y1="417.43" x2="636.29" y2="420.85"/><text x="-6826.83" y="-6800.79"/><text class="cls-9" transform="translate(620.69 442.7)">x</text><text class="cls-9" transform="translate(640.19 455.68) scale(0.58)">γ</text><text x="-6826.83" y="-6800.79"/><line class="cls-8" x1="677.12" y1="419.37" x2="697.99" y2="419.37"/><line class="cls-8" x1="693.72" y1="415.95" x2="697.99" y2="419.37"/><line class="cls-8" x1="697.99" y1="419.18" x2="693.72" y2="422.61"/><text class="cls-9" transform="translate(677.12 440.94)">y</text><text class="cls-9" transform="translate(696.62 453.93) scale(0.58)">γ</text><text class="cls-10" transform="translate(651.75 443.43) scale(0.58)">+</text><text class="cls-10" transform="translate(519.47 73.58) scale(0.58)">+</text><line class="cls-8" x1="493.67" y1="47.76" x2="514.54" y2="47.76"/><line class="cls-8" x1="510.27" y1="44.34" x2="514.54" y2="47.76"/><line class="cls-8" x1="514.54" y1="47.57" x2="510.27" y2="51"/><text x="-6826.83" y="-6800.79"/><text class="cls-9" transform="translate(493.67 72.84)">x</text><text class="cls-9" transform="translate(513.17 85.83) scale(0.58)">β</text><text x="-6826.83" y="-6800.79"/><text x="-6826.83" y="-6800.79"/><line class="cls-8" x1="539.49" y1="49.85" x2="560.37" y2="49.85"/><line class="cls-8" x1="556.09" y1="46.42" x2="560.37" y2="49.85"/><line class="cls-8" x1="560.37" y1="49.66" x2="556.09" y2="53.09"/><text class="cls-9" transform="translate(536.13 71.42)">y</text><text class="cls-9" transform="translate(555.63 84.41) scale(0.58)">β</text><text class="cls-11" transform="translate(369.99 83.62) scale(0.58)">+</text><text class="cls-11" transform="translate(369.99 459.33) scale(0.58)">+</text></svg>