<?xml version="1.0" encoding="UTF-8" standalone="no"?>
<!-- Created with Inkscape (http://www.inkscape.org/) -->

<svg
   xmlns:dc="http://purl.org/dc/elements/1.1/"
   xmlns:cc="http://creativecommons.org/ns#"
   xmlns:rdf="http://www.w3.org/1999/02/22-rdf-syntax-ns#"
   xmlns:svg="http://www.w3.org/2000/svg"
   xmlns="http://www.w3.org/2000/svg"
   xmlns:sodipodi="http://sodipodi.sourceforge.net/DTD/sodipodi-0.dtd"
   xmlns:inkscape="http://www.inkscape.org/namespaces/inkscape"
   width="210mm"
   height="297mm"
   viewBox="0 0 210 297"
   version="1.1"
   id="svg8"
   inkscape:version="0.92.0 r15299"
   sodipodi:docname="Cubierta.svg">
  <defs
     id="defs2">
    <inkscape:path-effect
       effect="bspline"
       id="path-effect252"
       is_visible="true"
       weight="33.333333"
       steps="2"
       helper_size="0"
       apply_no_weight="true"
       apply_with_weight="true"
       only_selected="false" />
    <inkscape:path-effect
       effect="bspline"
       id="path-effect247"
       is_visible="true"
       weight="33.333333"
       steps="2"
       helper_size="0"
       apply_no_weight="true"
       apply_with_weight="true"
       only_selected="false" />
    <inkscape:path-effect
       effect="bspline"
       id="path-effect190"
       is_visible="true"
       weight="33.333333"
       steps="2"
       helper_size="0"
       apply_no_weight="true"
       apply_with_weight="true"
       only_selected="false" />
    <inkscape:path-effect
       effect="bspline"
       id="path-effect186"
       is_visible="true"
       weight="33.333333"
       steps="2"
       helper_size="0"
       apply_no_weight="true"
       apply_with_weight="true"
       only_selected="false" />
    <inkscape:path-effect
       effect="bspline"
       id="path-effect182"
       is_visible="true"
       weight="33.333333"
       steps="2"
       helper_size="0"
       apply_no_weight="true"
       apply_with_weight="true"
       only_selected="false" />
    <inkscape:path-effect
       effect="bspline"
       id="path-effect168"
       is_visible="true"
       weight="33.333333"
       steps="2"
       helper_size="0"
       apply_no_weight="true"
       apply_with_weight="true"
       only_selected="false" />
    <inkscape:path-effect
       effect="bspline"
       id="path-effect163"
       is_visible="true"
       weight="33.333333"
       steps="2"
       helper_size="0"
       apply_no_weight="true"
       apply_with_weight="true"
       only_selected="false" />
    <inkscape:path-effect
       effect="bspline"
       id="path-effect49"
       is_visible="true"
       weight="33.333333"
       steps="2"
       helper_size="0"
       apply_no_weight="true"
       apply_with_weight="true"
       only_selected="false" />
    <inkscape:path-effect
       effect="bspline"
       id="path-effect44"
       is_visible="true"
       weight="33.333333"
       steps="2"
       helper_size="0"
       apply_no_weight="true"
       apply_with_weight="true"
       only_selected="false" />
    <inkscape:path-effect
       effect="bspline"
       id="path-effect39"
       is_visible="true"
       weight="33.333333"
       steps="2"
       helper_size="0"
       apply_no_weight="true"
       apply_with_weight="true"
       only_selected="false" />
    <inkscape:path-effect
       effect="bspline"
       id="path-effect34"
       is_visible="true"
       weight="33.333333"
       steps="2"
       helper_size="0"
       apply_no_weight="true"
       apply_with_weight="true"
       only_selected="false" />
    <inkscape:path-effect
       effect="bspline"
       id="path-effect29"
       is_visible="true"
       weight="33.333333"
       steps="2"
       helper_size="0"
       apply_no_weight="true"
       apply_with_weight="true"
       only_selected="false" />
    <inkscape:path-effect
       effect="bspline"
       id="path-effect24"
       is_visible="true"
       weight="33.333333"
       steps="2"
       helper_size="0"
       apply_no_weight="true"
       apply_with_weight="true"
       only_selected="false" />
    <inkscape:path-effect
       effect="bspline"
       id="path-effect20"
       is_visible="true"
       weight="33.333333"
       steps="2"
       helper_size="0"
       apply_no_weight="true"
       apply_with_weight="true"
       only_selected="false" />
    <inkscape:path-effect
       effect="spiro"
       id="path-effect12"
       is_visible="true" />
    <inkscape:path-effect
       effect="bspline"
       id="path-effect202"
       is_visible="true"
       weight="33.333333"
       steps="2"
       helper_size="0"
       apply_no_weight="true"
       apply_with_weight="true"
       only_selected="false" />
    <inkscape:path-effect
       effect="bspline"
       id="path-effect206"
       is_visible="true"
       weight="33.333333"
       steps="2"
       helper_size="0"
       apply_no_weight="true"
       apply_with_weight="true"
       only_selected="false" />
  </defs>
  <sodipodi:namedview
     id="base"
     pagecolor="#ffffff"
     bordercolor="#666666"
     borderopacity="1.0"
     inkscape:pageopacity="0.0"
     inkscape:pageshadow="2"
     inkscape:zoom="1.58"
     inkscape:cx="335.38688"
     inkscape:cy="626.97802"
     inkscape:document-units="mm"
     inkscape:current-layer="layer4"
     showgrid="false"
     inkscape:window-width="1366"
     inkscape:window-height="705"
     inkscape:window-x="-8"
     inkscape:window-y="-8"
     inkscape:window-maximized="1" />
  <metadata
     id="metadata5">
    <rdf:RDF>
      <cc:Work
         rdf:about="">
        <dc:format>image/svg+xml</dc:format>
        <dc:type
           rdf:resource="http://purl.org/dc/dcmitype/StillImage" />
        <dc:title />
      </cc:Work>
    </rdf:RDF>
  </metadata>
  <g
     inkscape:label="Capa 1"
     inkscape:groupmode="layer"
     id="layer1"
     style="display:inline">
    <path
       style="fill:none;stroke:#000000;stroke-width:0.26458332px;stroke-linecap:butt;stroke-linejoin:miter;stroke-opacity:1"
       d="m 47.90692,109.22713 c 7.826348,-6.34404 14.466872,-10.494365 23.893696,-11.02793 9.426825,-0.533565 21.641214,2.54968 31.483264,8.18217 9.84204,5.6325 17.31274,13.81469 18.20225,19.92151 0.88951,6.10681 -4.80235,10.13855 -10.96885,9.96069 -6.16649,-0.17786 -12.806665,-4.56512 -22.530235,-5.98812 -9.72357,-1.423 -22.530171,0.11853 -34.032632,1.00791 -11.502461,0.88937 -21.700175,1.12653 -22.292958,-3.02404 -0.592783,-4.15056 8.419116,-12.68815 16.245465,-19.03219 z"
       id="path22"
       inkscape:connector-curvature="0"
       inkscape:path-effect="#path-effect24"
       inkscape:original-d="m 49.092437,107.03361 c 6.640787,-4.15059 13.28131,-8.300917 19.921569,-12.450978 12.213513,3.082692 24.427902,6.165938 36.641454,9.249298 7.47074,8.18168 14.94144,16.36388 22.41176,24.54622 -5.69161,4.03149 -11.38348,8.06323 -17.07562,12.09524 -6.64061,-4.38799 -13.280786,-8.77524 -19.921573,-13.16247 -12.80658,1.5413 -25.61318,3.08284 -38.420167,4.62465 -10.197914,0.23691 -20.395628,0.47406 -30.593838,0.71149 9.012641,-8.53831 18.02454,-17.0759 27.036415,-25.61345 z" />
  </g>
  <g
     inkscape:groupmode="layer"
     id="layer2"
     inkscape:label="Capa 2"
     style="display:inline">
    <path
       style="fill:none;stroke:#000000;stroke-width:0.26458332px;stroke-linecap:butt;stroke-linejoin:miter;stroke-opacity:1"
       d="m 53.36146,94.819707 c -7.707919,5.928983 -4.031917,16.008343 7.58932,19.269333 11.621238,3.26099 31.186775,-0.29638 38.894379,-6.22538 7.707601,-5.929 3.557211,-14.229781 -8.063409,-17.490723 -11.620623,-3.260942 -30.712371,-1.482208 -38.42029,4.44677 z"
       id="path27"
       inkscape:connector-curvature="0"
       inkscape:path-effect="#path-effect29"
       inkscape:original-d="m 41.97759,90.669466 c 3.676269,10.079104 7.352273,20.158464 11.02801,30.238094 19.56638,-3.55774 39.131917,-7.11511 58.69748,-10.67227 -4.15,-8.30079 -8.30039,-16.60157 -12.450981,-24.901956 -19.090994,1.778423 -38.182742,3.557156 -57.274509,5.336132 z" />
  </g>
  <g
     inkscape:groupmode="layer"
     id="layer3"
     inkscape:label="Capa 3"
     style="display:inline">
    <path
       style="fill:none;stroke:#000000;stroke-width:0.26458332px;stroke-linecap:butt;stroke-linejoin:miter;stroke-opacity:1"
       d="m 76.240262,115.19109 c -1.074485,6.97198 -1.681818,15.34237 2.528011,20.56024 4.209829,5.21788 13.236148,7.28228 19.468792,3.80836 6.232645,-3.47393 9.671555,-12.48624 12.576725,-20.78676 2.90518,-8.30052 5.27688,-15.88996 0.11897,-19.387955 -5.15791,-3.497994 -17.846583,-2.905065 -24.961541,0.177946 -7.114957,3.083009 -8.656472,8.656179 -9.730957,15.628169 z"
       id="path32"
       inkscape:connector-curvature="0"
       inkscape:path-effect="#path-effect34"
       inkscape:original-d="m 75.773107,113.79272 c -0.607086,8.37037 -1.21442,16.74076 -1.822053,25.11191 9.027118,2.06427 18.053437,4.12868 27.079756,6.19341 3.43904,-9.01223 6.87795,-18.02454 10.31653,-27.03642 2.37179,-7.58916 4.74349,-15.1786 7.11484,-22.767505 -12.68734,0.592617 -25.376015,1.185545 -38.064421,1.778712 -1.54132,5.573153 -3.082835,11.146323 -4.624652,16.719893 z"
       sodipodi:nodetypes="ccccccc" />
  </g>
  <g
     inkscape:groupmode="layer"
     id="layer4"
     inkscape:label="Capa 4"
     style="display:inline">
    <path
       style="fill:none;stroke:#000000;stroke-width:0.26458332px;stroke-linecap:butt;stroke-linejoin:miter;stroke-opacity:1"
       d="m 118.8068,109.63677 c -4.92092,-3.61671 -11.88191,0.26953 -16.13333,6.0073 -4.251426,5.73777 -5.792924,13.32668 -4.014157,20.50108 1.778767,7.17441 6.877537,13.93324 12.514167,13.81795 5.63663,-0.1153 12.03218,-7.35554 13.73387,-16.47253 1.70169,-9.11699 -1.17963,-20.23709 -6.10055,-23.8538 z"
       id="path37"
       inkscape:connector-curvature="0"
       inkscape:path-effect="#path-effect39"
       inkscape:original-d="m 120.84655,102.13399 c -6.96072,3.88598 -13.92171,7.77222 -20.882965,11.65873 -1.541338,7.58916 -3.082837,15.17807 -4.624652,22.7675 5.099447,6.75911 10.198207,13.51795 15.296917,20.27731 6.16651,-6.99657 12.56983,-14.22995 18.85434,-21.34453 -2.88083,-11.1195 -5.76216,-22.2396 -8.64364,-33.35901 z"
       sodipodi:nodetypes="cccccc" />
  </g>
  <g
     inkscape:groupmode="layer"
     id="layer5"
     inkscape:label="Capa 5"
     style="display:inline">
    <path
       style="fill:none;stroke:#000000;stroke-width:0.26458332px;stroke-linecap:butt;stroke-linejoin:miter;stroke-opacity:1"
       d="m 53.717354,97.468062 c 9.960703,2.371646 20.277192,7.391598 26.216823,14.456748 5.939631,7.06516 7.502519,16.1756 5.378833,22.86572 -2.123686,6.69012 -7.933579,10.95861 -14.229557,7.35177 -6.295978,-3.60684 -13.076116,-15.0886 -20.913059,-24.14995 -7.836943,-9.06136 -16.730575,-15.70194 -16.374676,-19.160577 0.355898,-3.458641 9.960932,-3.735357 19.921636,-1.363711 z"
       id="path42"
       inkscape:connector-curvature="0"
       inkscape:path-effect="#path-effect44"
       inkscape:original-d="m 53.36146,94.819707 c 10.316752,5.019683 20.63324,10.039633 30.949463,15.059843 1.563186,9.11037 3.126074,18.22081 4.688819,27.33222 -5.810453,4.26883 -11.620348,8.53732 -17.431372,12.80672 C 64.787789,138.53527 58.007649,127.05352 51.226891,115.57143 42.333671,108.9307 33.440039,102.29012 24.546218,95.649858 34.151609,95.372877 43.756643,95.096159 53.36146,94.819707 Z"
       sodipodi:nodetypes="ccccccc" />
  </g>
  <g
     inkscape:groupmode="layer"
     id="layer6"
     inkscape:label="Capa 6"
     style="display:inline">
    <path
       style="fill:none;stroke:#000000;stroke-width:0.26458332px;stroke-linecap:butt;stroke-linejoin:miter;stroke-opacity:1"
       d="m 47.116524,111.81619 c -7.944836,0.35566 -16.68038,3.30049 -20.336818,9.57555 -3.656438,6.27505 -2.233521,15.87974 7.727593,22.52044 9.961115,6.6407 28.459289,10.31662 35.692612,5.15832 7.233322,-5.15829 3.20153,-19.15098 -2.391327,-27.26379 -5.592857,-8.11281 -12.747223,-10.34618 -20.69206,-9.99052 z"
       id="path47"
       inkscape:connector-curvature="0"
       inkscape:path-effect="#path-effect49"
       inkscape:original-d="m 47.906918,109.22713 c -8.735282,2.94457 -17.470826,5.8894 -26.206638,8.83449 1.423285,9.60513 2.846203,19.20982 4.268907,28.81513 18.499288,3.67582 36.997462,7.35174 55.495798,11.02801 -4.031438,-13.99264 -8.063227,-27.98533 -12.095239,-41.97759 -7.153921,-2.23358 -14.308286,-4.46696 -21.462828,-6.70004 z" />
  </g>
  <g
     inkscape:groupmode="layer"
     id="layer7"
     inkscape:label="Capa 7"
     style="display:none">
    <path
       style="fill:none;stroke:#000000;stroke-width:0.26458332px;stroke-linecap:butt;stroke-linejoin:miter;stroke-opacity:1"
       d="m 36.152606,114.85295 c -1.74918,-0.21871 -4.081596,0.21862 -6.23198,2.11379 -2.150383,1.89518 -4.118102,5.24759 -4.049866,9.68196 0.06824,4.43437 2.191055,9.99762 6.054324,13.20479 3.86327,3.20717 9.475503,4.0818 13.22918,2.98837 3.753678,-1.09343 5.648842,-4.15485 6.231866,-7.43457 0.583024,-3.27973 -0.145929,-6.77871 -1.530696,-9.25674 -1.384767,-2.47803 -3.425746,-3.93587 -5.119445,-5.30258 -1.6937,-1.3667 -3.116953,-2.71505 -4.392478,-3.80835 -1.275525,-1.09331 -2.441725,-1.96796 -4.190905,-2.18667 z"
       id="path161"
       inkscape:connector-curvature="0"
       inkscape:path-effect="#path-effect163"
       inkscape:original-d="m 36.735538,114.19697 c -2.332151,0.43706 -4.664567,0.87439 -6.997247,1.31198 -1.967966,3.35302 -3.935685,6.70543 -5.903925,10.05854 2.041318,5.53974 4.227768,11.07871 6.341254,16.61846 5.612781,0.87441 11.225012,1.74905 16.83712,2.62396 1.89528,-3.06143 3.79044,-6.12285 5.685261,-9.18388 -0.728541,-3.49853 -1.457494,-6.99751 -2.186638,-10.49587 -2.040483,-1.45794 -4.081463,-2.91578 -6.122588,-4.37328 -1.311751,-1.31228 -2.769479,-2.62423 -4.154615,-3.93594 -1.16595,-0.87493 -2.332151,-1.74958 -3.498622,-2.62397 z" />
  </g>
  <g
     inkscape:groupmode="layer"
     id="layer13"
     inkscape:label="Capa 8"
     style="display:none">
    <path
       style="fill:none;stroke:#000000;stroke-width:0.26458332px;stroke-linecap:butt;stroke-linejoin:miter;stroke-opacity:1"
       d="m 53.463504,136.42765 c 2.077366,0.51039 6.450642,0.94772 10.234725,-1.3389 3.784083,-2.28661 7.003295,-7.33492 6.784621,-12.87411 -0.218674,-5.53919 -3.863295,-11.58926 -7.471148,-15.48869 -3.607854,-3.89943 -7.17941,-5.64876 -11.042462,-6.59633 -3.863053,-0.947569 -8.01754,-1.093341 -11.334043,0.69237 -3.316504,1.78571 -5.794544,5.50277 -6.401979,8.16338 -0.607434,2.66061 0.65591,4.26401 2.295972,5.61249 1.640062,1.34849 3.656528,2.44179 5.0656,3.38929 1.409072,0.9475 2.210881,1.7493 3.486418,3.06129 1.275537,1.31198 3.024849,3.13418 3.972367,4.22743 0.947519,1.09326 1.093291,1.45769 1.275553,1.93157 0.182263,0.47388 0.400843,1.05676 0.574509,1.60561 0.173665,0.54885 0.336559,1.20042 0.474641,1.78533 0.138081,0.58491 0.299249,1.31017 0.372159,2.00268 0.07291,0.69251 0.07291,1.42117 -0.0364,2.07724 -0.109313,0.65608 -0.327896,1.23897 1.74947,1.74935 z"
       id="path166"
       inkscape:connector-curvature="0"
       inkscape:path-effect="#path-effect168"
       inkscape:original-d="m 51.167355,136.50069 c 4.373544,0.43706 8.74682,0.87439 13.119835,1.31198 3.280045,-4.95638 6.414405,-10.0588 9.62121,-15.08781 -3.64391,-6.0496 -7.288532,-12.09967 -10.933194,-18.1491 -3.5712,-1.74956 -7.142758,-3.49889 -10.714532,-5.247937 -4.154477,-0.146044 -8.308964,-0.291817 -12.463843,-0.43733 -2.478077,3.717247 -4.956117,7.434307 -7.434572,11.151857 1.263816,1.6034 2.527162,3.2068 3.790346,4.8106 2.016819,1.09308 4.033285,2.18638 6.049529,3.27997 0.801994,0.80146 1.603801,1.60327 2.405303,2.4053 1.749576,1.82194 3.498887,3.64414 5.247934,5.4666 0.146042,0.36418 0.291817,0.72861 0.437327,1.09332 0.219011,0.58306 0.437594,1.16594 0.655992,1.74931 0.146076,0.51008 0.291817,1.16594 0.43733,1.74931 0.146087,0.58303 0.291814,1.31172 0.437327,1.96798 2.64e-4,0.72883 2.64e-4,1.45749 0,2.18663 -0.21848,0.58306 -0.437063,1.16595 -0.655992,1.74932 z" />
  </g>
  <g
     inkscape:groupmode="layer"
     id="layer14"
     inkscape:label="Capa 9"
     style="display:none">
    <path
       style="fill:none;stroke:#000000;stroke-width:0.26458332px;stroke-linecap:butt;stroke-linejoin:miter;stroke-opacity:1"
       d="m 70.087282,132.57243 c 3.114305,0.82692 9.839131,2.26008 16.563914,2.06711 6.724784,-0.19296 13.449814,-2.01202 16.040374,-4.9334 2.59056,-2.92138 1.04709,-6.94544 -2.5356,-9.81163 -3.582688,-2.86618 -9.205283,-4.57501 -14.193785,-5.18138 -4.988502,-0.60637 -9.342972,-0.1103 -12.154232,0.11021 -2.811259,0.2205 -4.078968,0.16538 -4.602753,0.4961 -0.523784,0.33071 -0.303341,1.04715 -0.05527,1.76382 0.248077,0.71667 0.523622,1.43309 0.716566,2.09457 0.192943,0.66149 0.303165,1.2677 0.376916,1.68264 0.07375,0.41494 0.146738,0.85286 0.201885,1.32158 0.05515,0.46872 0.110231,1.07466 0.137803,1.59838 0.02757,0.52373 0.02757,0.96453 -0.07946,1.47948 -0.107029,0.51495 -0.333827,1.13865 -0.55431,1.5797 -0.220484,0.44106 -0.440859,0.71652 -0.578768,0.96467 -0.137909,0.24815 -0.192974,0.46841 -0.275719,0.74425 -0.08275,0.27584 -0.192833,0.6061 -0.385871,1.07492 -0.193038,0.46883 -0.468379,1.07458 -0.854274,1.48814 -0.385894,0.41356 -0.881726,0.63393 2.232578,1.46084 z"
       id="path180"
       inkscape:connector-curvature="0"
       inkscape:path-effect="#path-effect182"
       inkscape:original-d="m 66.476562,131.96615 c 6.725091,1.43289 13.449916,2.86605 20.174479,4.29947 6.72489,-1.81922 13.449919,-3.63828 20.174479,-5.45703 -1.54307,-4.02395 -3.08654,-8.04801 -4.63021,-12.07161 -5.621932,-1.70897 -11.244526,-3.4178 -16.867186,-5.1263 -4.354468,0.49584 -8.708938,0.99192 -13.063802,1.48828 -1.267616,-0.0554 -2.535325,-0.11051 -3.803385,-0.16537 0.220794,0.71646 0.441237,1.4329 0.661458,2.14974 0.275937,0.71648 0.551479,1.4329 0.826823,2.14974 0.11053,0.60619 0.22075,1.21241 0.330729,1.81901 0.05541,0.2203 0.110509,0.6612 0.165365,0.99219 0.05542,0.60647 0.110508,1.21241 0.165364,1.81901 2.65e-4,0.44088 2.65e-4,0.88168 0,1.32292 -0.1652,0.60643 -0.440708,1.21241 -0.661458,1.81901 -0.220337,0.27548 -0.440709,0.55095 -0.661458,0.82682 -0.05492,0.22045 -0.10998,0.44071 -0.165365,0.66146 -0.110133,0.33093 -0.220221,0.66119 -0.330729,0.99219 -0.275609,0.60665 -0.55095,1.2124 -0.826823,1.81901 -0.496091,0.22033 -0.991923,0.4407 -1.488281,0.66146 z" />
  </g>
  <g
     inkscape:groupmode="layer"
     id="layer16"
     inkscape:label="Capa 10"
     style="display:none">
    <path
       style="fill:none;stroke:#000000;stroke-width:0.26458332px;stroke-linecap:butt;stroke-linejoin:miter;stroke-opacity:1"
       d="m 68.568848,115.45762 c -0.385418,-0.89863 -1.156194,-2.69576 -1.762043,-3.89744 -0.605848,-1.20167 -1.046858,-1.80806 -1.405103,-2.22143 -0.358245,-0.41336 -0.633871,-0.63386 -0.937094,-0.96466 -0.303223,-0.33079 -0.633914,-0.77171 -0.96458,-1.10238 -0.330665,-0.33067 -0.661427,-0.55118 -0.99224,-0.93714 -0.330812,-0.38596 -0.661482,-0.93708 -1.047242,-1.35041 -0.385759,-0.41333 -0.826795,-0.68898 -1.185128,-0.93705 -0.358332,-0.24808 -0.633894,-0.46853 -1.0473,-0.71658 -0.413406,-0.24805 -0.964559,-0.52362 -1.328378,-0.70553 -0.363819,-0.18191 -0.628368,-0.31418 -0.876533,-0.5072 -0.248165,-0.19302 -0.523642,-0.46849 -0.804709,-0.67793 -0.281067,-0.20944 -0.655894,-0.39685 -0.07688,-2.988549 0.579008,-2.591699 2.066813,-7.606151 5.098466,-10.91329 3.031653,-3.307139 7.607026,-4.905764 11.685817,-5.126208 4.078791,-0.220445 7.661938,0.937188 10.721082,2.287627 3.059144,1.350439 5.59485,2.893912 7.909885,4.712868 2.315035,1.818956 4.409715,3.913636 6.61455,7.551596 2.204837,3.637956 4.519937,8.819376 4.713017,12.099086 0.19308,3.2797 -1.73612,4.6577 -3.031579,5.84285 -1.295457,1.18514 -1.956816,2.17718 -2.590834,2.56317 -0.634018,0.386 -1.240168,0.16558 -1.763898,-0.0549 -0.523729,-0.22052 -0.964595,-0.44095 -1.416758,-0.63107 -0.452163,-0.19011 -1.001,-0.37931 -1.469557,-0.57224 -0.468557,-0.19292 -0.899504,-0.4043 -1.335462,-0.56512 -0.435959,-0.16083 -0.87685,-0.27105 -1.317915,-0.38132 -0.441066,-0.11026 -0.881852,-0.22046 -1.488346,-0.3583 -0.606495,-0.13784 -1.377869,-0.30313 -2.034808,-0.38174 -0.656939,-0.0786 -1.198703,-0.0704 -1.653746,-0.0754 -0.455044,-0.005 -0.822284,-0.0232 -1.488757,-0.0551 -0.666473,-0.0319 -1.629932,-0.0774 -2.470653,-0.10004 -0.840721,-0.0226 -1.557097,-0.0223 -2.163531,-0.0221 -0.606435,1.7e-4 -1.102333,1.7e-4 -1.750322,0.064 -0.647988,0.0638 -1.446798,0.19122 -2.103916,0.27827 -0.657119,0.0871 -1.170947,0.13347 -2.101517,0.21141 -0.93057,0.078 -2.274934,0.18717 -2.969335,0.44747 -0.6944,0.26031 -0.736793,0.67154 -0.758011,0.87736 -0.02122,0.20583 -0.02122,0.20623 -0.406637,-0.69241 z"
       id="path245"
       inkscape:connector-curvature="0"
       inkscape:path-effect="#path-effect247"
       inkscape:original-d="m 68.954267,116.35626 c -0.770518,-1.79741 -1.541294,-3.59454 -2.312341,-5.39142 -0.440671,-0.60655 -0.881679,-1.21294 -1.322916,-1.81901 -0.275323,-0.22073 -0.55095,-0.44123 -0.826823,-0.66146 -0.330505,-0.44129 -0.661194,-0.88221 -0.992188,-1.32291 -0.330433,-0.22073 -0.661194,-0.44124 -0.992187,-0.66146 -0.330526,-0.55158 -0.661194,-1.1027 -0.992188,-1.65365 -0.440645,-0.27583 -0.881679,-0.55148 -1.322916,-0.82682 -0.275389,-0.22079 -0.55095,-0.44124 -0.826823,-0.66146 -0.551016,-0.2759 -1.102167,-0.55148 -1.653646,-0.82682 -0.165132,-0.11053 -0.440709,-0.22075 -0.661458,-0.33073 -0.275477,-0.276 -0.55095,-0.55148 -0.826823,-0.82682 -0.275344,-0.16563 -0.661194,-0.331 -0.992188,-0.4961 1.489022,-5.017927 2.976827,-10.032379 4.464844,-15.048173 4.575064,-1.598689 9.150437,-3.197315 13.72526,-4.795573 3.582916,1.157206 7.166062,2.31484 10.748698,3.472657 2.53574,1.543066 5.071446,3.086539 7.606771,4.630208 2.09482,2.094291 4.189499,4.188971 6.283854,6.283854 2.315373,5.181157 4.630473,10.362577 6.945313,15.544267 -1.92904,1.37781 -3.85824,2.75581 -5.787761,4.13412 -0.661297,0.99207 -1.322652,1.98411 -1.984375,2.97656 -0.606259,-0.22082 -1.212408,-0.44124 -1.819011,-0.66146 -0.440817,-0.2208 -0.881679,-0.44124 -1.322916,-0.66146 -0.46314,-0.16001 -1.011977,-0.34921 -1.518364,-0.52342 -0.430681,-0.21164 -0.861626,-0.42302 -1.292834,-0.63413 -0.440788,-0.11053 -0.881679,-0.22075 -1.322917,-0.33073 -0.440894,-0.11055 -0.881679,-0.22075 -1.322916,-0.33073 -0.771764,-0.1657 -1.543138,-0.33099 -2.315105,-0.49609 -0.54198,0.008 -1.083745,0.0161 -1.626313,0.0246 -0.367501,-0.0185 -0.734742,-0.0367 -1.102889,-0.0547 -0.964797,-0.0459 -1.928256,-0.0914 -2.893193,-0.13666 -0.71652,1.9e-4 -1.432896,6.6e-4 -2.14974,10e-4 -0.496025,-2.7e-4 -0.991923,-2.7e-4 -1.488281,0 -0.799654,0.12735 -1.598463,0.25479 -2.398474,0.38264 -0.514215,0.0462 -1.028045,0.0926 -1.542944,0.1394 -1.346236,0.10913 -2.6906,0.21835 -4.03699,0.32798 -0.04216,0.41124 -0.08455,0.82247 -0.12722,1.2341 z"
       sodipodi:nodetypes="ccccccccccccccccccccccccccccccccccccc" />
  </g>
  <g
     inkscape:groupmode="layer"
     id="layer17"
     inkscape:label="Capa 11"
     style="display:none">
    <path
       style="fill:none;stroke:#000000;stroke-width:0.26458332px;stroke-linecap:butt;stroke-linejoin:miter;stroke-opacity:1"
       d="m 98.099233,133.59897 c -0.12075,1.17126 0.189309,3.37612 2.980217,5.09886 2.79091,1.72275 8.06137,2.96286 14.2108,2.10155 6.14943,-0.86131 13.17767,-3.8242 16.45036,-8.66446 3.27268,-4.84026 2.79035,-11.55851 0.7578,-17.31163 -2.03255,-5.75312 -5.61558,-10.54197 -12.36784,-14.951628 -6.75225,-4.409654 -16.67386,-8.440308 -20.601505,-8.35426 -3.927645,0.08605 -1.860667,4.288905 -0.568708,6.872821 1.291963,2.583917 1.808633,3.548377 2.135933,4.289047 0.32729,0.74068 0.46508,1.25739 0.60291,1.77425 0.13782,0.51685 0.27558,1.03344 0.39617,1.44692 0.1206,0.41347 0.22391,0.72343 0.32729,0.99911 0.10338,0.27569 0.20668,0.51672 0.29284,0.87853 0.0862,0.36182 0.15502,0.84387 0.18948,1.30904 0.0345,0.46517 0.0345,0.91283 -0.0689,1.37803 -0.10335,0.4652 -0.30994,0.94724 -0.48223,1.34353 -0.1723,0.39629 -0.31001,0.70614 -0.58577,1.06811 -0.27576,0.36198 -0.68875,0.77496 -0.89558,0.9818 -0.20684,0.20684 -0.82696,0.82696 -0.98206,0.99929 -0.155101,0.17234 -0.464764,0.51641 -0.7232,0.75766 -0.258436,0.24125 -0.46498,0.37894 -0.663233,0.54269 -0.198252,0.16375 -0.421905,0.3874 -0.697721,0.62875 -0.275815,0.24135 -0.619881,0.51661 -0.666725,0.733 -0.04684,0.2164 0.253327,0.404 0.614982,0.67955 0.361654,0.27554 0.809633,0.6546 1.21952,0.92156 0.409887,0.26696 0.864906,0.45655 1.260967,0.71485 0.39607,0.25831 0.77515,0.60292 0.99905,0.87845 0.2239,0.27553 0.2928,0.48223 0.51692,0.74082 0.22411,0.25859 0.60278,0.56841 0.82667,0.80949 0.2239,0.24108 0.29279,0.41333 0.37896,0.63736 0.0862,0.22404 0.18944,0.49943 0.379,0.91301 0.18955,0.41358 0.46501,0.9645 0.60284,1.3434 0.13783,0.3789 0.13783,0.58557 0.15507,0.87866 0.0172,0.29309 0.0516,0.67156 -2e-5,1.10231 -0.0517,0.43075 -0.18938,0.91276 -0.36162,1.25736 -0.17223,0.3446 -0.3788,0.55118 -0.56844,0.82698 -0.18965,0.2758 -0.36168,0.61987 -0.60048,0.8991 -0.2388,0.27923 -0.62233,0.54769 -1.01871,0.75452 -0.39638,0.20683 -0.84385,0.37893 -1.20383,0.57082 -0.359991,0.19189 -0.708017,0.46258 -1.138906,0.6522 -0.430889,0.18962 -0.981581,0.32729 -1.102331,1.49855 z"
       id="path250"
       inkscape:connector-curvature="0"
       inkscape:path-effect="#path-effect252"
       inkscape:original-d="m 97.668454,132.56559 c 0.310325,2.2046 0.620382,4.40946 0.930178,6.61458 5.271798,1.2401 10.542258,2.48021 15.812988,3.72071 7.028,-2.96294 14.05625,-5.92583 21.08398,-8.88835 -0.48202,-6.71789 -0.96436,-13.43614 -1.44694,-20.15381 -3.5825,-4.78877 -7.16553,-9.57763 -10.7487,-14.366045 -9.92151,-4.030985 -19.84312,-8.061641 -29.765618,-12.092284 2.067396,4.202904 4.134374,8.40576 6.20117,12.609049 0.517118,0.96453 1.033788,1.92899 1.550298,2.89388 0.13808,0.51655 0.27587,1.03326 0.41341,1.55029 0.13812,0.51668 0.27587,1.03327 0.41341,1.5503 0.10365,0.3099 0.20697,0.61985 0.31006,0.93017 0.10367,0.24102 0.20697,0.48205 0.31006,0.72347 0.0692,0.48231 0.13806,0.96436 0.2067,1.44694 2.7e-4,0.4478 2.7e-4,0.89546 0,1.34359 -0.20656,0.48233 -0.41315,0.96436 -0.62012,1.44694 -0.13763,0.31 -0.27534,0.61985 -0.41341,0.93018 -0.41357,0.41357 -0.82656,0.82655 -1.24023,1.24023 l -0.62012,0.62012 c -0.310188,0.34468 -0.619851,0.68875 -0.930175,1.03353 -0.206606,0.13764 -0.413147,0.27534 -0.620118,0.41341 -0.172243,0.20674 -0.413146,0.41314 -0.620117,0.62011 -0.344683,0.2757 -0.688753,0.55095 -1.033528,0.82683 0.241625,0.17213 0.551481,0.34424 0.826822,0.51676 0.448014,0.3786 0.895991,0.75766 1.343589,1.13688 0.379206,0.13753 0.827088,0.34425 1.240237,0.51677 0.3791,0.34413 0.75818,0.68875 1.13688,1.03352 0.0692,0.20644 0.13807,0.41315 0.2067,0.62012 0.37952,0.31003 0.75819,0.61985 1.13689,0.93018 0.0692,0.17198 0.13806,0.34424 0.2067,0.51676 0.1037,0.27556 0.20697,0.55095 0.31006,0.82682 0.27602,0.55125 0.55148,1.10217 0.82682,1.65365 2.7e-4,0.20648 2.7e-4,0.41315 0,0.62012 0.0348,0.37918 0.0692,0.75765 0.10336,1.13688 -0.13763,0.48235 -0.27535,0.96436 -0.41342,1.44694 -0.20657,0.20657 -0.41314,0.41315 -0.62011,0.62012 -0.17221,0.34468 -0.34425,0.68875 -0.51677,1.03353 -0.31008,0.20663 -0.68875,0.48204 -1.03353,0.72346 -0.44799,0.17215 -0.89546,0.34425 -1.34358,0.51677 -0.275542,0.20659 -0.619855,0.48205 -0.93018,0.72347 -0.551471,0.13767 -1.102164,0.27534 -1.653646,0.41341 z"
       sodipodi:nodetypes="ccccccccccccccccccccccccccccccccccccccccc" />
  </g>
</svg>
