<?xml version="1.0" encoding="UTF-8" standalone="no"?>
<svg
   xmlns:dc="http://purl.org/dc/elements/1.1/"
   xmlns:cc="http://creativecommons.org/ns#"
   xmlns:rdf="http://www.w3.org/1999/02/22-rdf-syntax-ns#"
   xmlns:svg="http://www.w3.org/2000/svg"
   xmlns="http://www.w3.org/2000/svg"
   xmlns:sodipodi="http://sodipodi.sourceforge.net/DTD/sodipodi-0.dtd"
   xmlns:inkscape="http://www.inkscape.org/namespaces/inkscape"
   inkscape:version="1.0 (4035a4fb49, 2020-05-01)"
   sodipodi:docname="observacion1.svg"
   id="svg8"
   version="1.1"
   viewBox="0 0 210 297"
   height="297mm"
   width="210mm">
  <defs
     id="defs2" />
  <sodipodi:namedview
     inkscape:window-maximized="0"
     inkscape:window-y="0"
     inkscape:window-x="26"
     inkscape:window-height="728"
     inkscape:window-width="1260"
     showgrid="false"
     inkscape:document-rotation="0"
     inkscape:current-layer="layer3"
     inkscape:document-units="mm"
     inkscape:cy="442.30764"
     inkscape:cx="252.78499"
     inkscape:zoom="1.979899"
     inkscape:pageshadow="2"
     inkscape:pageopacity="0.0"
     borderopacity="1.0"
     bordercolor="#666666"
     pagecolor="#ffffff"
     id="base" />
  <metadata
     id="metadata5">
    <rdf:RDF>
      <cc:Work
         rdf:about="">
        <dc:format>image/svg+xml</dc:format>
        <dc:type
           rdf:resource="http://purl.org/dc/dcmitype/StillImage" />
      </cc:Work>
    </rdf:RDF>
  </metadata>
  <g
     id="layer1"
     inkscape:groupmode="layer"
     inkscape:label="Capa 1">
    <path
       sodipodi:nodetypes="cssssssc"
       id="path833"
       d="m 36.285715,123.22024 c -7.559525,69.54762 -10.693859,55.96551 -7.559525,69.54762 0,0 -43.386386,34.73329 6.803571,41.57738 49.892855,6.80357 42.333332,18.14285 52.916665,-30.99405 C 99.02976,154.21428 122.46428,173.86905 99.02976,154.21428 75.595238,134.55952 75.595238,134.55952 75.595238,134.55952 c -8.619175,-25.85755 43.089282,-41.577379 1.511904,-27.21428 -41.577382,14.36309 -40.821427,15.875 -40.821427,15.875 z"
       style="fill:#e9afaf;stroke:#000000;stroke-width:1.665;stroke-linecap:butt;stroke-linejoin:miter;stroke-opacity:1;stroke-miterlimit:4;stroke-dasharray:1.665, 1.66500000000000004;stroke-dashoffset:0;fill-opacity:1" />
  </g>
  <g
     inkscape:label="Capa 2"
     id="layer2"
     inkscape:groupmode="layer">
    <path
       sodipodi:nodetypes="csssc"
       id="path836"
       d="M 65.011905,77.863094 C 52.916666,111.88095 45.357142,96.761903 52.916666,111.88095 60.47619,127 32.505952,134.55952 61.232142,127 89.958333,119.44047 120.95238,136.82738 96.005952,97.517856 71.059524,58.208333 65.011905,77.863094 65.011905,77.863094 Z"
       style="fill:#ffb380;fill-opacity:1;stroke:#000000;stroke-width:1.265;stroke-linecap:butt;stroke-linejoin:miter;stroke-miterlimit:4;stroke-dasharray:0, 13.915;stroke-dashoffset:0;stroke-opacity:1" />
  </g>
  <g
     inkscape:label="Capa 3"
     id="layer3"
     inkscape:groupmode="layer">
    <path
       sodipodi:nodetypes="csssssc"
       id="path841"
       d="m 54.122079,114.79226 c 12.294396,-3.60814 -4.944488,-11.62622 3.608137,-5.07812 8.552627,6.5481 31.315354,-55.110903 18.040695,10.0226 -1.71567,8.41812 0.400903,8.28536 -23.118814,15.10073 -23.51972,6.81537 -0.80181,7.08265 -5.479027,1.06908 -4.677217,-6.01356 -14.031648,6.1472 -4.677217,-5.87993 9.354434,-12.02712 11.626226,-15.23436 11.626226,-15.23436 z"
       style="fill:none;stroke:#000000;stroke-width:0.264583px;stroke-linecap:butt;stroke-linejoin:miter;stroke-opacity:1" />
  </g>
</svg>
